<svg xmlns="http://www.w3.org/2000/svg" viewBox="0 0 256 256">
  <rect width="256" height="256" rx="56" fill="#1793D1"/>
  <path fill="#ffffff" d="M128 34c-9.5 23.2-18.2 44.5-27.6 66.4 10.1 10.8 22.7 20.1 38.2 27.8-16.8-4.3-30.3-10.6-41.2-19.3-18.1 39-39.9 83.2-63.4 123.1 23.4-13.3 42.5-21.8 60.8-25.8-.6-3.4-.9-7-.8-10.6.6-25.4 13.7-44.8 29.3-43.5 15.7 1.3 27.9 23 27.3 48.4-.1 2.4-.3 4.8-.6 7.1 17.8 4.2 36.6 12.7 59.9 25.9-7.7-14.2-14.8-27.4-21.7-40.4-12.7-9.8-27.8-19.8-51-31.8 16.8 4.3 29.7 9.4 39.9 15.2C159.9 141.3 142.6 75.9 128 34z"/>
</svg>
