<svg xmlns="http://www.w3.org/2000/svg" viewBox="0 0 256 256">
  <path fill="#1793D1" d="M128 20C113.7 54.9 104.8 77.7 88.8 111.9c9.8 10.4 21.9 22.5 41.5 36.2-21.1-8.7-35.5-17.5-46.3-26.7-20.6 43-52.8 106.7-80 153.6 31.1-18 55.2-29.1 77.7-33.3-1-4.3-1.6-8.9-1.5-13.7l.1-3.3c.8-31.3 17.1-55.4 36.4-53.8 19.3 1.6 34.4 28.3 33.6 59.6-.1 4.1-.5 8.1-1.2 12 22.2 4.4 46 15.5 76.9 33.4-10.5-19.3-19.9-36.8-28.9-53.5-14.2-11-29-25.3-59.4-40.9 20.9 5.4 35.9 11.6 47.6 18.5C159.7 151.4 143.8 108.3 128 20z"/>
</svg>
