<svg xmlns="http://www.w3.org/2000/svg" viewBox="0 0 256 256">
  <path fill="#1793D1" d="M128 18C112.3 56.3 101.9 84.2 83.7 122.4c12.3 13 27.7 24.3 46.9 34.3-20.7-5.3-37.1-13.2-49.9-24.1C60.6 173.9 34.5 226.4 7 274c28.6-16.5 51.9-27.1 74.1-32.2-.9-4.5-1.3-9.2-1.2-14.1.7-31.7 17.1-56.1 36.6-54.4 19.5 1.6 34.8 28.8 34.1 60.5-.1 3.3-.4 6.5-.9 9.7 21.7 5.4 44.8 15.9 72.9 32.3-9.5-17.5-18.3-34-26.8-49.8-15.4-12-33.8-24.2-62.1-38.7 20.5 5.3 36.2 11.5 48.6 18.6C160.9 162.3 145.9 103.9 128 18z"/>
</svg>
